<?xml version="1.0" encoding="UTF-8" standalone="no"?>
<!-- Created with Inkscape (http://www.inkscape.org/) -->

<svg
   xmlns:dc="http://purl.org/dc/elements/1.1/"
   xmlns:cc="http://creativecommons.org/ns#"
   xmlns:rdf="http://www.w3.org/1999/02/22-rdf-syntax-ns#"
   xmlns:svg="http://www.w3.org/2000/svg"
   xmlns="http://www.w3.org/2000/svg"
   xmlns:sodipodi="http://sodipodi.sourceforge.net/DTD/sodipodi-0.dtd"
   xmlns:inkscape="http://www.inkscape.org/namespaces/inkscape"
   width="100"
   height="100"
   id="svg2"
   version="1.1"
   inkscape:version="0.48.4 r9939"
   inkscape:export-filename="C:\Users\antoinep\Desktop\mobileMaster\app\images\reticle@x2.png"
   inkscape:export-xdpi="180"
   inkscape:export-ydpi="180"
   sodipodi:docname="New document 1">
  <defs
     id="defs4">
    <inkscape:path-effect
       effect="spiro"
       id="path-effect4632"
       is_visible="true" />
    <inkscape:path-effect
       is_visible="true"
       id="path-effect4626"
       effect="spiro" />
    <inkscape:path-effect
       effect="spiro"
       id="path-effect3852"
       is_visible="true" />
  </defs>
  <sodipodi:namedview
     id="base"
     pagecolor="#def7df"
     bordercolor="#666666"
     borderopacity="1.0"
     inkscape:pageopacity="0"
     inkscape:pageshadow="2"
     inkscape:zoom="15.839192"
     inkscape:cx="60.176621"
     inkscape:cy="50.067571"
     inkscape:document-units="px"
     inkscape:current-layer="layer1"
     showgrid="false"
     inkscape:window-width="2560"
     inkscape:window-height="1058"
     inkscape:window-x="-8"
     inkscape:window-y="-8"
     inkscape:window-maximized="1" />
  <metadata
     id="metadata7">
    <rdf:RDF>
      <cc:Work
         rdf:about="">
        <dc:format>image/svg+xml</dc:format>
        <dc:type
           rdf:resource="http://purl.org/dc/dcmitype/StillImage" />
        <dc:title></dc:title>
      </cc:Work>
    </rdf:RDF>
  </metadata>
  <g
     inkscape:label="Layer 1"
     inkscape:groupmode="layer"
     id="layer1"
     transform="translate(0,-952.36218)">
    <path
       sodipodi:type="arc"
       style="fill:none;stroke:#ffffff;stroke-width:3.07261595999999980;stroke-linecap:round;stroke-linejoin:round;stroke-miterlimit:4;stroke-opacity:1;stroke-dasharray:none"
       id="path4628"
       sodipodi:cx="48.739861"
       sodipodi:cy="49.997448"
       sodipodi:rx="30.557114"
       sodipodi:ry="30.557114"
       d="m 79.296974,49.997448 a 30.557114,30.557114 0 1 1 -61.114227,0 30.557114,30.557114 0 1 1 61.114227,0 z"
       transform="matrix(0.97636673,0,0,0.97636673,2.4120218,953.54633)" />
    <path
       style="font-size:medium;font-style:normal;font-variant:normal;font-weight:normal;font-stretch:normal;text-indent:0;text-align:start;text-decoration:none;line-height:normal;letter-spacing:normal;word-spacing:normal;text-transform:none;direction:ltr;block-progression:tb;writing-mode:lr-tb;text-anchor:start;baseline-shift:baseline;color:#000000;fill:#000000;fill-opacity:1;fill-rule:nonzero;stroke:none;stroke-width:1.9927007;marker:none;visibility:visible;display:inline;overflow:visible;enable-background:accumulate;font-family:Sans;-inkscape-font-specification:Sans"
       d="M 49.875 0.96875 A 0.99644998 0.99644998 0 0 0 49 1.96875 L 49 28.125 A 1.1891186 1.1891186 0 0 1 49.25 28.78125 A 1.1872214 1.1872214 0 0 1 49.25 28.90625 L 49.25 68.09375 A 1.187475 1.187475 0 0 1 49 68.84375 L 49 98 A 1 1 0 0 0 51 98 L 51 68.9375 A 1.187475 1.187475 0 0 1 50.6875 68.09375 L 50.6875 28.90625 A 1.1891186 1.1891186 0 0 1 51 28.03125 L 51 1.96875 A 0.99644998 0.99644998 0 0 0 49.875 0.96875 z "
       transform="translate(0,952.36218)"
       id="path3850" />
    <path
       style="font-size:medium;font-style:normal;font-variant:normal;font-weight:normal;font-stretch:normal;text-indent:0;text-align:start;text-decoration:none;line-height:normal;letter-spacing:normal;word-spacing:normal;text-transform:none;direction:ltr;block-progression:tb;writing-mode:lr-tb;text-anchor:start;baseline-shift:baseline;color:#000000;fill:#000000;fill-opacity:1;fill-rule:nonzero;stroke:none;stroke-width:1.9927007;marker:none;visibility:visible;display:inline;overflow:visible;enable-background:accumulate;font-family:Sans;-inkscape-font-specification:Sans"
       d="M 1.78125 49 A 0.99644998 0.99644998 0 0 0 2 50.96875 L 98 50.96875 A 0.99644998 0.99644998 0 1 0 98 49 L 70.65625 49 A 1.187475 1.187475 0 0 1 69.59375 49.65625 L 30.40625 49.65625 A 1.1891186 1.1891186 0 0 1 29.28125 49 L 2 49 A 0.99644998 0.99644998 0 0 0 1.78125 49 z "
       transform="translate(0,952.36218)"
       id="path4624" />
  </g>
</svg>
