<?xml version="1.0" encoding="UTF-8" standalone="no"?>
<!-- Created with Inkscape (http://www.inkscape.org/) -->

<svg
   xmlns:dc="http://purl.org/dc/elements/1.1/"
   xmlns:cc="http://creativecommons.org/ns#"
   xmlns:rdf="http://www.w3.org/1999/02/22-rdf-syntax-ns#"
   xmlns:svg="http://www.w3.org/2000/svg"
   xmlns="http://www.w3.org/2000/svg"
   xmlns:sodipodi="http://sodipodi.sourceforge.net/DTD/sodipodi-0.dtd"
   xmlns:inkscape="http://www.inkscape.org/namespaces/inkscape"
   width="744.09448819"
   height="1052.3622047"
   id="svg2"
   version="1.1"
   inkscape:version="0.48.4 r9939"
   sodipodi:docname="icons.svg">
  <defs
     id="defs4" />
  <sodipodi:namedview
     id="base"
     pagecolor="#ffffff"
     bordercolor="#666666"
     borderopacity="1.0"
     inkscape:pageopacity="0.0"
     inkscape:pageshadow="2"
     inkscape:zoom="0.98994949"
     inkscape:cx="403.62823"
     inkscape:cy="559.25449"
     inkscape:document-units="px"
     inkscape:current-layer="layer1"
     showgrid="false"
     inkscape:window-width="1264"
     inkscape:window-height="730"
     inkscape:window-x="86"
     inkscape:window-y="0"
     inkscape:window-maximized="0"
     showguides="true"
     inkscape:guide-bbox="true" />
  <metadata
     id="metadata7">
    <rdf:RDF>
      <cc:Work
         rdf:about="">
        <dc:format>image/svg+xml</dc:format>
        <dc:type
           rdf:resource="http://purl.org/dc/dcmitype/StillImage" />
        <dc:title />
      </cc:Work>
    </rdf:RDF>
  </metadata>
  <g
     inkscape:label="Layer 1"
     inkscape:groupmode="layer"
     id="layer1">
    <path
       style="fill:#000000;fill-opacity:1;stroke:#000000;stroke-width:1px;stroke-linecap:butt;stroke-linejoin:miter;stroke-opacity:1"
       d="m 546.21664,662.58994 c -7.38543,0.10046 -14.62037,0.94273 -19.9375,2.875 -14.179,5.15272 -32.5625,23.5 -32.5625,23.5 0,0 -26.979,0.15116 -31.0625,0.75 -4.0835,0.59885 -10.7853,3.46936 -14.65625,10.34375 -3.87095,6.87439 -6.40551,27.43341 2.53125,27.53125 1.9317,0.0212 5.42138,0.0199 8.3125,0.0312 -0.0961,-0.7951 -0.15625,-1.61649 -0.15625,-2.4375 0,-11.05307 8.94693,-20 20,-20 11.05307,0 20,8.94693 20,20 0,0.81968 -0.0292,1.64364 -0.125,2.4375 22.41629,-0.0568 47.87383,-0.17606 69.5625,-0.28125 -0.0747,-0.70289 -0.0937,-1.43355 -0.0937,-2.15625 0,-11.05307 8.94693,-20 20,-20 11.05307,0 20,8.94693 20,20 0,0.64929 -0.0333,1.30404 -0.0937,1.9375 1.23438,-0.008 7.23899,-0.0283 7.5,-0.0312 10.45181,-0.11947 10.4173,-27.59423 5.8125,-31.3125 -12.47036,-10.06954 -36.93374,-24.57335 -44.96875,-28.78125 -5.02188,-2.62994 -17.75345,-4.57369 -30.0625,-4.40625 z m 1.6875,7.34375 c 7.09662,-0.16832 14.67494,0.52524 20.3125,2.34375 7.0195,2.26429 27.37954,17.80067 27.37954,17.80067 0,0 -81.66762,-1.12237 -85.96076,-1.12237 0,0 16.38426,-15.12721 23.73747,-17.1783 3.78841,-1.05673 9.01166,-1.71284 14.53125,-1.84375 z"
       id="path3195"
       inkscape:connector-curvature="0"
       sodipodi:nodetypes="cscssccsssccsssccssccssccss" />
    <path
       sodipodi:type="arc"
       style="fill:none;stroke:#000000;stroke-width:11.8972187;stroke-linejoin:round;stroke-miterlimit:4;stroke-opacity:1;stroke-dasharray:none"
       id="path3974"
       sodipodi:cx="663.54395"
       sodipodi:cy="762.82721"
       sodipodi:rx="17.803938"
       sodipodi:ry="17.803938"
       d="m 681.34788,762.82721 a 17.803938,17.803938 0 1 1 -35.60787,0 17.803938,17.803938 0 1 1 35.60787,0 z"
       transform="matrix(0.72899393,0,0,0.72899393,-5.2860162,169.35516)" />
    <path
       transform="matrix(0.72899393,0,0,0.72899393,104.33518,169.35516)"
       d="m 681.34788,762.82721 a 17.803938,17.803938 0 1 1 -35.60787,0 17.803938,17.803938 0 1 1 35.60787,0 z"
       sodipodi:ry="17.803938"
       sodipodi:rx="17.803938"
       sodipodi:cy="762.82721"
       sodipodi:cx="663.54395"
       id="path3976"
       style="fill:none;stroke:#000000;stroke-width:11.8972187;stroke-linejoin:round;stroke-miterlimit:4;stroke-opacity:1;stroke-dasharray:none"
       sodipodi:type="arc" />
    <path
       style="font-size:medium;font-style:normal;font-variant:normal;font-weight:normal;font-stretch:normal;text-indent:0;text-align:start;text-decoration:none;line-height:normal;letter-spacing:normal;word-spacing:normal;text-transform:none;direction:ltr;block-progression:tb;writing-mode:lr-tb;text-anchor:start;baseline-shift:baseline;color:#000000;fill:#000000;fill-opacity:1;stroke:none;stroke-width:5.55600023;marker:none;visibility:visible;display:inline;overflow:visible;enable-background:accumulate;font-family:Sans;-inkscape-font-specification:Sans"
       d="m 364.73004,667.46155 c -1.98745,0.0626 -4.4107,0.11379 -6.71875,1.71875 -1.54889,1.07707 -2.51066,2.4307 -3.3125,3.5625 -0.52473,0.74066 -0.87068,1.28305 -1.09375,1.65625 l -2.84375,0 c -0.0937,-0.005 -0.18758,-0.005 -0.28125,0 -1.36058,0.13694 -2.50834,1.41382 -2.5,2.78125 l 0,6.65625 c -12.39123,2.352 -21.75,13.20557 -21.75,26.28125 0,14.79334 11.98791,26.8125 26.78125,26.8125 14.79334,0 26.78125,-12.01916 26.78125,-26.8125 0,-10.63271 -6.20978,-19.79909 -15.1875,-24.125 l 0,-8.8125 c 0.002,-1.44632 -1.30376,-2.76653 -2.75,-2.78125 l -0.4375,0 c 0.0297,-0.0255 0.1032,-0.10984 0.125,-0.125 0.13983,-0.0972 1.86728,-0.57748 3.375,-0.625 1.50772,-0.0475 2.75,0.0937 2.75,0.0937 1.649,0.25864 1.59058,-1.05993 1.77583,-2.71878 0.18525,-1.65885 0.57711,-3.32597 -1.08833,-3.43747 0,0 -1.63755,-0.18764 -3.625,-0.125 z m -11.1875,12.5 5.53125,0 0,4.09375 c -1.7872,-0.41493 -3.62672,-0.68149 -5.53125,-0.71875 z m 2.71875,14 c 0.0417,-9.3e-4 0.0833,-9.3e-4 0.125,0 0.0937,-0.005 0.18758,-0.005 0.28125,0 0.0937,-0.005 0.18758,-0.005 0.28125,0 7.64867,0.26315 13.73527,6.72035 13.46875,14.34375 -0.0132,0.37812 -0.0494,0.74924 -0.0937,1.125 -0.17181,1.44808 -1.64567,2.6093 -3.09375,2.4375 -1.44808,-0.17181 -2.60931,-1.64567 -2.4375,-3.09375 0.0264,-0.22409 0.0545,-0.46204 0.0625,-0.6875 0.16077,-4.59841 -3.42204,-8.40177 -8.09375,-8.5625 -1.45626,0.1309 -2.90035,-1.07499 -3.03125,-2.53125 -0.1309,-1.45626 1.07499,-2.90035 2.53125,-3.03125 z"
       id="rect3772"
       inkscape:connector-curvature="0"
       sodipodi:nodetypes="csscccccssscccccccscccccccccccccscccsc" />
    <path
       style="fill:none;stroke:#000000;stroke-width:4.19999981;stroke-linecap:round;stroke-linejoin:miter;stroke-miterlimit:0.30000001;stroke-opacity:1;stroke-dasharray:none"
       d="m 372.46665,666.38177 5.35714,-4.82143"
       id="path3797"
       inkscape:connector-curvature="0" />
    <path
       style="fill:none;stroke:#000000;stroke-width:4.19999981;stroke-linecap:round;stroke-linejoin:miter;stroke-miterlimit:0.30000001;stroke-opacity:1;stroke-dasharray:none"
       d="m 375.32378,671.20322 10.89286,0"
       id="path3799"
       inkscape:connector-curvature="0" />
    <path
       style="fill:none;stroke:#000000;stroke-width:4.19999981;stroke-linecap:round;stroke-linejoin:miter;stroke-miterlimit:0.30000001;stroke-opacity:1;stroke-dasharray:none"
       d="m 371.39522,675.66748 5.53571,7.5"
       id="path3801"
       inkscape:connector-curvature="0" />
    <path
       style="fill:#000000;fill-opacity:1;stroke:none"
       d="m 267.46219,692.81869 -2.84375,0.28125 0,9.34375 -22.15625,0 0,-7.03125 -2.3125,0.25 c 0,0 -15.70401,17.03067 -16.78125,24.125 -1.07723,7.09432 -0.43184,12.36434 3.90625,13.03125 4.83273,0.74296 47.1371,1.18613 52.34375,0 4.22116,-0.96163 6.50391,-8.28405 5,-12.34375 -3.85001,-10.3929 -17.15625,-27.65625 -17.15625,-27.65625 z"
       id="path3820"
       inkscape:connector-curvature="0" />
    <path
       style="fill:#000000;fill-opacity:1;stroke:none"
       d="m 288.40072,656.20319 -20.57692,11.53847 6.46978,5.989 -17.04671,12.47253 29.61539,-10.57692 -7.69231,-8.46154 z"
       id="path3825"
       inkscape:connector-curvature="0"
       sodipodi:nodetypes="ccccccc" />
    <path
       style="font-size:medium;font-style:normal;font-variant:normal;font-weight:normal;font-stretch:normal;text-indent:0;text-align:start;text-decoration:none;line-height:normal;letter-spacing:normal;word-spacing:normal;text-transform:none;direction:ltr;block-progression:tb;writing-mode:lr-tb;text-anchor:start;baseline-shift:baseline;color:#000000;fill:#000000;fill-opacity:1;stroke:none;stroke-width:5.19999981;marker:none;visibility:visible;display:inline;overflow:visible;enable-background:accumulate;font-family:Sans;-inkscape-font-specification:Sans"
       d="m 237.58973,651.41879 c -0.54573,0.0662 -1.06836,0.31081 -1.46875,0.6875 l -16.78125,15.84502 c -0.68717,0.63516 -0.9872,1.40708 -0.75126,2.3126 0.23594,0.90551 0.99776,1.40076 1.90751,1.61982 l 3.5625,0.875 17.71875,17.78188 1.3291,-1.92763 1.06376,-1.01943 -17.89859,-18.26022 c -0.24995,-0.24369 1.37197,-2.01913 1.0465,-2.14535 l 8.45352,-8.08106 c 0.11914,0.20637 1.68323,-0.80463 1.85392,-0.63837 l 16.69897,16.64291 1.01071,-0.84873 2.09836,-1.5665 -16.4375,-16.59375 -0.53125,-2.96875 c -0.24433,-1.28241 -1.57949,-1.87594 -2.875,-1.71494 z"
       id="path3827"
       inkscape:connector-curvature="0"
       sodipodi:nodetypes="cccsccccccccccccccc" />
    <path
       inkscape:connector-curvature="0"
       id="path3878"
       d="m 140.28501,725.47338 c -5.9617,-3.71119 -10.39427,-6.75294 -9.85016,-6.75946 0.54412,-0.007 6.61316,2.04122 13.48678,4.55052 l 12.49747,4.56237 -2.64732,2.19708 -2.64732,2.19709 z m 7.95711,-3.99693 -8.90363,-2.7072 8.90363,1.1265 8.90363,1.12651 1.87965,1.77494 1.87966,1.77495 -1.87966,-0.19424 c -1.03381,-0.10684 -5.88628,-1.41249 -10.78328,-2.90146 z m 3.95717,-4.81864 0,-1.97858 2.47322,-0.31085 c 1.36028,-0.17096 -1.97857,-0.92144 -7.41968,-1.66774 l -9.89293,-1.3569 11.87151,-0.11361 11.87151,-0.11361 4.94646,1.58412 4.94646,1.58414 -5.55788,0.19722 -5.55788,0.19723 1.22284,1.97858 1.22283,1.97859 -5.06323,0 -5.06323,0 z m -26.7109,-5.93575 c 0.67256,-1.08823 2.06065,-1.97859 3.08465,-1.97859 1.024,0 1.86181,0.89036 1.86181,1.97859 l 0,1.97858 -3.08464,0 -3.08465,0 z m 36.60382,-1.97859 -4.94646,-1.58413 9.51505,-0.19723 9.51505,-0.19722 -1.22284,1.97858 -1.22283,1.97859 -3.34575,-0.19723 c -1.84017,-0.10847 -5.57167,-0.91008 -8.29222,-1.78136 z m -21.66022,-2.74232 c 0.51972,-0.51972 9.61157,-2.93574 20.20411,-5.36892 l 19.25919,-4.42399 1.32115,1.32115 1.32115,1.32115 -1.05704,1.05704 c -0.9622,0.9622 -7.48053,2.09714 -33.16415,5.77437 -4.85614,0.69528 -8.40413,0.83892 -7.88441,0.3192 z m 5.29596,-15.234 14.3038,-14.55435 2.19372,2.19372 2.19371,2.19371 -16.49751,12.36063 -16.49752,12.36064 z m -0.45371,8.54333 c 1.08823,-1.10166 7.02028,-4.81313 13.18233,-8.2477 l 11.20375,-6.24467 1.31081,2.12094 1.31082,2.12095 -5.96388,2.07902 -5.96388,2.07902 1.19434,3.1124 1.19434,3.1124 -5.3124,-1.33333 -5.31238,-1.33332 -4.41121,2.26866 -4.41122,2.26867 z m -35.4155,-7.64997 -5.59057,-7.00643 2.04082,-2.04081 2.04081,-2.04081 4.25551,8.34148 c 5.42374,10.63141 4.37872,11.67642 -2.74657,2.74657 z m 25.55666,-8.71827 c 3.79003,-8.85485 6.86265,-17.13378 6.82804,-18.39762 l -0.0629,-2.2979 -2.8845,3.81273 -2.88451,3.81273 -1.05631,-1.05631 -1.05631,-1.05631 1.26191,-3.28848 1.26191,-3.28849 4.6456,0.62213 c 2.55508,0.34217 5.18657,1.16309 5.84774,1.82427 l 1.20214,1.20213 -4.17003,8.17394 -4.17003,8.17393 1.28244,2.07504 1.28244,2.07503 5.04415,-7.08936 c 2.77428,-3.89914 5.82363,-7.08935 6.77633,-7.08935 l 1.7322,0 -1.87793,3.46252 c -1.03285,1.90439 -4.62563,6.07761 -7.98394,9.27381 l -6.10603,5.81129 0,-2.34876 0,-2.34876 -1.73854,0 -1.73854,0 -2.47626,5.97821 c -1.36194,3.28801 -3.23535,6.44735 -4.16313,7.02075 -0.92778,0.5734 1.41405,-6.20233 5.20409,-15.05717 z m -20.70056,4.8232 -4.71905,-8.8955 2.99611,-2.99611 2.99611,-2.99611 2.27692,11.33763 c 1.25231,6.23569 2.02763,11.58692 1.72294,11.89161 -0.30469,0.30469 -2.67755,-3.449 -5.27303,-8.34152 z m 9.95683,4.6547 -0.17257,-3.46252 -1.97859,0 -1.97858,0 0,-3.95717 0,-3.95717 1.97858,0 1.97859,0 0,-8.59698 0,-8.59698 3.95717,-3.58119 3.95717,-3.58119 -0.12005,1.7906 c -0.34417,5.13333 -7.47486,36.88918 -7.62172,33.9426 z"
       style="fill:#000000;fill-opacity:1"
       sodipodi:nodetypes="scscccsscccccssccssccccccccccccssscccsscccccsssscccssscccccccsscccccccccccsscccsscccccccccsscccccsscsscccccssccscccsssscccccccccccss" />
    <path
       style="fill:#000000;fill-opacity:1;stroke:none"
       d="m 127.47115,719.19322 c -3.19028,3.98422 -9.13302,4.72542 -13.27348,1.65552 -4.14046,-3.06989 -4.91073,-8.78838 -1.72045,-12.7726 0.97717,-1.22034 2.26008,-2.18221 3.7287,-2.7956 2.75395,5.54079 6.98622,9.58168 11.26523,13.91268 z"
       id="path3882"
       inkscape:connector-curvature="0"
       sodipodi:nodetypes="csscc" />
    <path
       inkscape:connector-curvature="0"
       id="path3926"
       d="M 54.356229,728.59968 C 45.531286,726.406 37.602953,714.79314 37.602953,708.60891 c 0,-5.14677 1.338782,-6.58469 3.235276,-10.44503 0,0 4.171267,-3.37418 4.376391,-5.72954 0.200401,-2.30136 -2.775912,-7.23357 -2.775912,-7.23357 l -2.775889,-6.09246 c 0,0 4.23446,1.69662 5.890676,3.19572 9.424386,8.53042 6.641832,4.46071 3.025566,-3.47612 0,0 -1.604816,-4.05803 -1.438666,-6.23262 0.16606,-2.17458 2.620403,-5.1703 2.620403,-5.1703 2.188195,-3.33963 5.638265,-5.99733 7.209508,-7.10223 0.818303,-0.57543 2.106634,-1.418 2.412365,-1.24645 -0.448407,1.86347 -1.362934,5.37113 -1.731135,6.91849 -0.474796,1.92078 0.773319,6.97766 3.991854,9.74476 l 5.988866,5.1488 -1.271273,-5.17542 c 0,0 -0.49714,-2.9853 -0.27279,-4.7475 0.336977,-2.64682 1.056344,-5.45348 2.797827,-7.475 1.729599,-2.0077 7.148371,-4.69349 7.148371,-4.69349 -0.595217,2.47115 -2.426734,6.36823 -2.543383,9.32703 -0.05806,1.47267 0.954156,6.88638 3.321176,8.4844 1.456176,1.2105 1.483966,3.84712 1.167322,6.53621 -0.313187,2.65982 -1.682695,6.22681 -1.20067,9.04037 l 2.57533,-6.26647 c 1.103677,-2.68554 2.271609,-5.95405 2.390901,-6.3256 1.184493,0.94203 4.444712,3.64022 3.303576,12.99929 -0.242177,1.98619 -0.851515,4.97115 -0.549331,6.98556 0.513588,3.42359 2.895656,5.28868 3.675482,6.87075 0,0 1.528271,1.30728 1.271861,4.46323 -0.358351,4.41058 -2.167455,6.55205 -2.167455,6.55205 -1.992696,7.2861 -10.27398,11.52244 -19.293541,13.09639 l -6.231946,-0.12155 z m 19.401718,-8.96592 c 2.403553,-1.28637 3.854533,-1.50139 4.227456,-4.76583 l 0.570568,-4.99454 -8.071619,4.38949 -2.22335,-3.74102 -0.919949,-3.45306 c -0.779488,-2.92577 -1.71218,-5.3865 -3.390537,-7.2074 l -5.038145,-5.46608 1.283768,5.28558 c 1.012671,4.16946 -1.42075,6.94404 -3.973645,9.76349 l -4.829474,5.33375 1.208577,-5.64829 1.208555,-5.6483 -2.420702,3.38898 c -3.615384,5.0615 -2.989349,10.78115 1.463903,13.37494 5.156759,3.00354 11.679932,3.76676 17.195922,0.81464 z"
       style="fill:#000000;fill-opacity:1"
       sodipodi:nodetypes="ssssccsszssccsccsscscscscsssssscscscccsscsscccsscc" />
    <path
       style="font-size:medium;font-style:normal;font-variant:normal;font-weight:normal;font-stretch:normal;text-indent:0;text-align:start;text-decoration:none;line-height:normal;letter-spacing:normal;word-spacing:normal;text-transform:none;direction:ltr;block-progression:tb;writing-mode:lr-tb;text-anchor:start;baseline-shift:baseline;color:#000000;fill:#000000;fill-opacity:1;stroke:none;stroke-width:4.36573219;marker:none;visibility:visible;display:inline;overflow:visible;enable-background:accumulate;font-family:Sans;-inkscape-font-specification:Sans"
       d="m 664.84816,686.44321 -0.14293,1.33474 c -0.0874,1.00959 -0.19068,2.16284 -0.19068,3.4322 0,19.83765 14.91555,36.27646 33.5593,36.27646 18.64374,0 33.5593,-16.43881 33.5593,-36.27646 0,-1.26936 -0.10328,-2.42261 -0.19068,-3.4322 l -0.14293,-1.33474 -66.45123,0 z m 17.87605,5.38665 a 1.8408726,1.6307808 0 0 1 0.19067,0.0476 l 8.86652,0 a 1.8408726,1.6307808 0 0 1 1.85911,1.57309 l 0,3.14619 a 1.8408726,1.6307808 0 0 1 -1.85911,1.57309 l -8.86652,0 a 1.8408726,1.6307808 0 0 1 -1.85911,-1.57309 l 0,-3.14619 a 1.8408726,1.6307808 0 0 1 1.47776,-1.57309 1.8408726,1.6307808 0 0 1 0.19068,-0.0476 z m 21.30824,0.14293 a 1.8408726,1.5606592 0 0 1 0.33369,0 l 8.91419,0 a 1.8408726,1.5606592 0 0 1 1.85911,1.57309 l 0,2.95551 a 1.8408726,1.5606592 0 0 1 -1.85911,1.57309 l -8.91419,0 a 1.8408726,1.5606592 0 0 1 -1.81144,-1.57309 l 0,-2.95551 a 1.8408726,1.5606592 0 0 1 1.47775,-1.57309 z m -30.7468,10.67796 49.57624,0 c -4.07959,10.73372 -13.69839,18.16206 -24.78812,18.16206 -11.08973,0 -20.70853,-7.42834 -24.78812,-18.16206 z"
       id="path3945"
       inkscape:connector-curvature="0" />
    <path
       style="font-size:medium;font-style:normal;font-variant:normal;font-weight:normal;font-stretch:normal;text-indent:0;text-align:start;text-decoration:none;line-height:normal;letter-spacing:normal;word-spacing:normal;text-transform:none;direction:ltr;block-progression:tb;writing-mode:lr-tb;text-anchor:start;baseline-shift:baseline;color:#000000;fill:#000000;fill-opacity:0.79255317;stroke:none;stroke-width:3.0999999;marker:none;visibility:visible;display:inline;overflow:visible;enable-background:accumulate;font-family:Sans;-inkscape-font-specification:Sans"
       d="m 698.33936,712.67932 c -3.01713,0 -5.5501,1.88481 -5.5501,4.20533 0,0.3315 0.0475,0.64961 0.14477,0.95911 l 10.81061,0 c 0.0975,-0.3095 0.14476,-0.62761 0.14476,-0.95911 0,-2.32052 -2.53295,-4.20533 -5.55008,-4.20533 z"
       id="path3979"
       inkscape:connector-curvature="0"
       sodipodi:nodetypes="csccscc" />
    <path
       style="fill:#000000;fill-opacity:1;stroke:none"
       d="m 708.27504,648.689 c -1.90312,-0.0362 -3.13156,0.15928 -3.6978,0.38135 -2.17505,0.85306 -3.18757,1.91122 -3.81355,2.28133 -0.46898,0.27729 -4.41984,0.39066 -5.14149,-0.14293 -0.72164,-0.53368 -2.03029,-0.0264 -3.07128,-1.51862 -0.58906,-0.8444 -5.99273,-1.60034 -9.39769,-0.23835 -2.97933,1.19173 -9.20261,15.49038 -11.53601,19.49681 -0.009,0.0137 0.008,0.0334 0,0.0476 -9.31856,0.83314 -15.32534,2.49993 -16.25528,5.81567 -0.0722,0.25714 0.15303,0.46554 0.28601,0.76271 2.50107,5.59151 20.41113,5.81567 42.09213,5.81567 23.39354,0 38.56945,0.0488 42.33048,-6.57838 1.66846,-2.9399 -5.65475,-4.75645 -16.87498,-5.72034 -1.00655,-2.91555 -5.96406,-16.78126 -10.01059,-19.44913 -1.00446,-0.66224 -3.00684,-0.91726 -4.90995,-0.95339 z"
       id="path3993"
       inkscape:connector-curvature="0"
       sodipodi:nodetypes="scccssccccsscss" />
    <path
       inkscape:connector-curvature="0"
       id="path4022"
       d="m 58.568183,610.56476 -26.92119,-26.97673 16.80963,-16.89741 16.80963,-16.89741 1.64408,1.0161 c 0.90424,0.55885 1.64408,2.85703 1.64408,5.10707 l 0,4.09097 4.71565,5.60423 4.71565,5.60423 1.33921,10.09548 1.33921,10.09548 -1.26425,5.03719 -1.26425,5.03718 10.29722,12.32345 10.29723,12.32344 -5.46739,5.70673 c -3.00706,3.13869 -5.98622,5.70672 -6.62035,5.70672 -0.63413,0 -13.2675,-12.13953 -28.07416,-26.97672 z m 33.63768,-1.94444 -2.37272,-5.20754 3.2906,-3.2906 3.2906,-3.2906 4.147977,3.75387 4.14798,3.75387 -0.58771,4.10806 -0.58771,4.10805 -4.478157,0.63621 -4.47815,0.63622 -2.37271,-5.20754 z m -9.65926,-14.20141 0,-3.14489 3.3324,0.64629 3.33241,0.64628 0.83194,2.49861 0.83193,2.4986 -4.16434,0 -4.16434,0 0,-3.14489 z m 9.02031,-10.00941 c -5.64627,-6.09243 -6.13957,-8.67106 -2.52394,-13.19341 l 2.4986,-3.12519 4.35891,-1.03125 4.358907,-1.03124 4.27931,4.55512 4.27931,4.55511 -0.64268,6.71509 -0.64268,6.71509 -5.4716,0.63005 -5.471587,0.63005 -5.02255,-5.41942 z m -13.81016,-22.00658 c -1.76038,-4.58748 -0.36396,-5.54033 5.8382,-3.98369 l 5.2323,1.31322 -0.79829,2.42489 -0.79829,2.42488 -4.08651,0.6054 -4.0865,0.60541 -1.30091,-3.39011 z m -7.20346,-9.81401 0,-2.99832 2.99833,0 2.99833,0 0,2.99832 0,2.99833 -2.99833,0 -2.99833,0 0,-2.99833 z"
       style="fill:#0c0500" />
    <path
       style="fill:#000000;fill-opacity:1;stroke:none"
       d="m 190.45686,545.49688 0,4 0,4 -2.5,0 c -1.375,0 -2.5,0.24404 -2.5,0.53125 0,0.28721 1.85625,4.20643 4.125,8.71875 l 4.125,8.21875 4.25,-8.5 4.28125,-8.46875 -2.90625,-0.3125 -2.875,-0.3125 0,-3.9375 0,-3.9375 -3,0 z m 32,26.03125 -8.5,4.21875 c -4.675,2.31856 -8.5,4.44514 -8.5,4.75 0,0.30486 3.825,2.46269 8.5,4.78125 l 8.5,4.21875 0,-3 0,-3 3.5,0 3.25,0 0,-6 -3.25,0 -3.5,0 0,-3 z m -56,0.96875 0,2.5 0,2.5 -3.5,0 -3.5,0 0,3 0,3 3.5,0 3.5,0 0,3 0,3 0.75,-0.0312 c 0.4125,-0.0276 4.55672,-1.99637 9.21875,-4.375 l 8.46875,-4.34375 -8.21875,-4.125 c -4.51232,-2.26875 -8.65654,-4.125 -9.21875,-4.125 z m 27,19 c -0.30486,0 -2.46269,3.825 -4.78125,8.5 l -4.21875,8.5 3,0 3,0 0,4 0,3.125 6,0 0,-3.09375 0,-4.03125 2.96875,0 3,0 -4.21875,-8.5 c -2.31856,-4.675 -4.44514,-8.5 -4.75,-8.5 z"
       id="rect4061"
       inkscape:connector-curvature="0"
       sodipodi:nodetypes="cccssccccccccccccsccccccccccccccccccccccccccscsccccccccccccs" />
    <g
       id="g4088" />
    <path
       style="fill:#000000;fill-opacity:1;stroke:none"
       d="m 333.56592,562.99958 c -1.50185,0 -2.69199,1.09267 -2.69199,2.44727 0,0.10228 0.0354,0.19469 0.0489,0.29367 -1.85278,0.008 -3.66346,0.0489 -5.77555,0.0489 l 0,19.87183 -31.57972,0 c 0,-2.54872 -0.75158,-4.57901 -4.88459,-4.64982 -4.52973,-0.0775 -5.87345,2.1011 -5.87345,4.64982 l -6.02028,0 0,17.4735 6.16712,0 c 0.25503,-5.29505 4.62663,-9.49541 9.98486,-9.49541 5.35822,0 9.72982,4.20036 9.98485,9.49541 l 23.44484,0 c 0.25503,-5.29505 4.62663,-9.49541 9.98486,-9.49541 5.35823,0 9.77877,4.20036 10.0338,9.49541 l 6.9013,0 0,-17.4735 c -0.11371,-1.72257 0.0442,-2.13954 -0.44051,-2.692 l -12.33423,-17.08194 c -1.53704,-0.0522 -2.86352,-0.0816 -4.25825,-0.0979 0.0182,-0.11449 0.0489,-0.22358 0.0489,-0.34262 0,-1.3546 -1.2391,-2.44727 -2.74095,-2.44727 z m 0.0979,5.97134 4.99243,0 7.63548,12.1874 -12.62791,-0.0489 z"
       id="rect4100"
       inkscape:connector-curvature="0"
       sodipodi:nodetypes="ssccccsccccsccsccccccssccccc" />
    <path
       sodipodi:type="arc"
       style="fill:#000000;fill-opacity:1;stroke:none"
       id="path4117"
       sodipodi:cx="492.7019"
       sodipodi:cy="351.88452"
       sodipodi:rx="3.8512065"
       sodipodi:ry="3.8512065"
       d="m 496.55311,351.88452 a 3.8512065,3.8512065 0 1 1 -7.70241,0 3.8512065,3.8512065 0 1 1 7.70241,0 z"
       transform="matrix(1.9839682,0,0,1.9839682,-684.41914,-93.925086)" />
    <path
       transform="matrix(1.8912329,0,0,1.8912329,-595.26875,-61.292964)"
       d="m 496.55311,351.88452 a 3.8512065,3.8512065 0 1 1 -7.70241,0 3.8512065,3.8512065 0 1 1 7.70241,0 z"
       sodipodi:ry="3.8512065"
       sodipodi:rx="3.8512065"
       sodipodi:cy="351.88452"
       sodipodi:cx="492.7019"
       id="path4119"
       style="fill:#000000;fill-opacity:1;stroke:none"
       sodipodi:type="arc" />
    <path
       style="fill:none;stroke:#000000;stroke-width:3.445755;stroke-linecap:round;stroke-linejoin:miter;stroke-miterlimit:4;stroke-opacity:1;stroke-dasharray:none"
       d="m 273.98541,573.2021 67.54462,-26.4305"
       id="path4126"
       inkscape:connector-curvature="0" />
    <path
       style="fill:none;stroke:#000000;stroke-width:3.445755;stroke-linecap:round;stroke-linejoin:miter;stroke-miterlimit:4;stroke-opacity:1;stroke-dasharray:none"
       d="m 277.67728,580.94946 67.54463,-26.43051"
       id="path4130"
       inkscape:connector-curvature="0" />
    <path
       style="fill:none;stroke:#000000;stroke-width:2.81925392;stroke-linecap:butt;stroke-linejoin:miter;stroke-miterlimit:4;stroke-opacity:1;stroke-dasharray:none"
       d="m 278.87994,572.57281 2.16759,5.59375"
       id="path4132"
       inkscape:connector-curvature="0"
       sodipodi:nodetypes="cc" />
    <path
       sodipodi:nodetypes="cc"
       inkscape:connector-curvature="0"
       id="path4134"
       d="m 288.5105,569.30047 2.16758,5.59375"
       style="fill:none;stroke:#000000;stroke-width:2.81925392;stroke-linecap:butt;stroke-linejoin:miter;stroke-miterlimit:4;stroke-opacity:1;stroke-dasharray:none" />
    <path
       style="fill:none;stroke:#000000;stroke-width:2.81925392;stroke-linecap:butt;stroke-linejoin:miter;stroke-miterlimit:4;stroke-opacity:1;stroke-dasharray:none"
       d="m 298.14107,565.46878 2.16758,5.59374"
       id="path4136"
       inkscape:connector-curvature="0"
       sodipodi:nodetypes="cc" />
    <path
       sodipodi:nodetypes="cc"
       inkscape:connector-curvature="0"
       id="path4138"
       d="m 307.77164,561.77693 2.16759,5.59375"
       style="fill:none;stroke:#000000;stroke-width:2.81925392;stroke-linecap:butt;stroke-linejoin:miter;stroke-miterlimit:4;stroke-opacity:1;stroke-dasharray:none" />
    <path
       style="fill:none;stroke:#000000;stroke-width:2.81925392;stroke-linecap:butt;stroke-linejoin:miter;stroke-miterlimit:4;stroke-opacity:1;stroke-dasharray:none"
       d="m 317.4022,557.94525 2.16758,5.59375"
       id="path4140"
       inkscape:connector-curvature="0"
       sodipodi:nodetypes="cc" />
    <path
       sodipodi:nodetypes="cc"
       inkscape:connector-curvature="0"
       id="path4142"
       d="m 327.03277,554.25343 2.16758,5.59374"
       style="fill:none;stroke:#000000;stroke-width:2.81925392;stroke-linecap:butt;stroke-linejoin:miter;stroke-miterlimit:4;stroke-opacity:1;stroke-dasharray:none" />
    <path
       style="fill:none;stroke:#000000;stroke-width:2.81925392;stroke-linecap:butt;stroke-linejoin:miter;stroke-miterlimit:4;stroke-opacity:1;stroke-dasharray:none"
       d="m 336.66337,550.42175 2.16759,5.59374"
       id="path4144"
       inkscape:connector-curvature="0"
       sodipodi:nodetypes="cc" />
    <path
       style="fill:#000000;fill-opacity:1;stroke:none"
       d="m 457.03803,549.77209 -58.9375,-0.0134 -2.65625,49.48214 4.8125,0 c -10e-4,-0.0625 0,-0.12471 0,-0.1875 0,-6.2132 5.0368,-11.25 11.25,-11.25 6.2132,0 11.25,5.0368 11.25,11.25 0,0.0419 4.6e-4,0.0833 0,0.125 l 13.84375,-0.0312 c -2.6e-4,-0.0313 0,-0.0624 0,-0.0937 0,-6.2132 5.0368,-11.25 11.25,-11.25 6.2132,0 11.25,5.0368 11.25,11.25 0,0.0105 3e-5,0.0208 0,0.0312 l 12.03125,-0.0312 0,-20.71875 z m -8.5625,6.59375 6.58929,0.009 10.00446,21.08482 -16.78125,0 z m -25.30926,1.09375 8.41072,0 0,8.91964 8.38839,0 0,6.97322 -8.38839,0 0,8.91964 -8.41072,0 0,-8.91964 -8.55357,0 0,-6.97322 8.55357,0 z"
       id="path4157"
       inkscape:connector-curvature="0"
       sodipodi:nodetypes="ccccsssccssscccccccccccccccccccccc" />
    <path
       transform="matrix(0.88703018,0,0,0.88703018,-47.827683,205.00659)"
       d="m 568.75003,444.23718 a 9.7321424,9.7321424 0 1 1 -19.46429,0 9.7321424,9.7321424 0 1 1 19.46429,0 z"
       sodipodi:ry="9.7321424"
       sodipodi:rx="9.7321424"
       sodipodi:cy="444.23718"
       sodipodi:cx="559.01788"
       id="path4176"
       style="fill:#000000;fill-opacity:1;stroke:none"
       sodipodi:type="arc" />
    <path
       sodipodi:type="arc"
       style="fill:#000000;fill-opacity:1;stroke:none"
       id="path4178"
       sodipodi:cx="559.01788"
       sodipodi:cy="444.23718"
       sodipodi:rx="9.7321424"
       sodipodi:ry="9.7321424"
       d="m 568.75003,444.23718 a 9.7321424,9.7321424 0 1 1 -19.46429,0 9.7321424,9.7321424 0 1 1 19.46429,0 z"
       transform="matrix(0.88703018,0,0,0.88703018,-84.332759,205.00659)" />
    <path
       style="font-size:medium;font-style:normal;font-variant:normal;font-weight:normal;font-stretch:normal;text-indent:0;text-align:start;text-decoration:none;line-height:normal;letter-spacing:normal;word-spacing:normal;text-transform:none;direction:ltr;block-progression:tb;writing-mode:lr-tb;text-anchor:start;baseline-shift:baseline;color:#000000;fill:#000000;fill-opacity:1;stroke:none;stroke-width:9.10000038;marker:none;visibility:visible;display:inline;overflow:visible;enable-background:accumulate;font-family:Sans;-inkscape-font-specification:Sans"
       d="m 503.3054,576.68073 a 6.0126202,6.0126202 0 0 0 -5.40916,5.98724 l 0,24.36189 52.39871,0 0,-24.36189 a 6.0126202,6.0126202 0 0 0 -5.98724,-5.98724 l -40.38294,0 a 6.0126202,6.0126202 0 0 0 -0.61937,0 z"
       id="rect4199"
       inkscape:connector-curvature="0" />
    <path
       style="fill:#000000;fill-opacity:1;stroke:none"
       d="m 523.12524,539.55982 0,0.0825 c -0.57998,0.0451 -1.13465,0.11205 -1.36261,0.24775 -3.43122,2.04269 -5.07927,5.93866 -6.89565,9.78604 -0.73741,1.56196 -1.19198,4.32303 -2.18844,4.83109 -2.88965,1.47332 -7.10953,3.05658 -8.17569,6.48273 -0.33723,1.08379 -0.5379,6.41574 0.12381,7.39115 0.88948,1.31105 2.23214,2.15487 3.79881,2.64265 2.2067,0.68697 7.58559,-0.15454 8.67117,0.82583 0.92891,0.83887 1.78845,1.53322 2.68394,1.8994 0.88591,0.36224 2.98818,0.32745 4.2943,0.28904 1.3126,0.038 3.41332,0.0712 4.2943,-0.28904 0.8955,-0.36618 1.71375,-1.06053 2.64265,-1.8994 1.08559,-0.98037 6.46448,-0.13886 8.67118,-0.82583 1.56666,-0.48778 2.95062,-1.3316 3.84009,-2.64265 0.66179,-0.97541 0.4611,-6.30736 0.12381,-7.39115 -1.06615,-3.42615 -5.32734,-5.00941 -8.21698,-6.48273 -0.99646,-0.50806 -1.45102,-3.26913 -2.18844,-4.83109 -1.81638,-3.84738 -3.46442,-7.74335 -6.89565,-9.78604 -0.22795,-0.13573 -0.78264,-0.20264 -1.36262,-0.24775 l 0,-0.0825 c 0,0 -0.52778,0.0317 -0.94969,0.0412 -0.39329,-0.007 -0.90842,-0.0412 -0.90842,-0.0412 z m -0.56467,4.10125 3.52425,0 c 0.21961,0 0.37162,0.15201 0.37162,0.37161 l 0,11.89298 c 0,0.21961 -0.15201,0.41292 -0.37162,0.41292 l -3.52425,0 c -0.2196,0 -0.41291,-0.19331 -0.41291,-0.41292 l 0,-11.89298 c 0,-0.2196 0.19331,-0.37161 0.41291,-0.37161 z m 9.0707,14.81017 0,9.0841 c -1.48523,2.30782 -4.07754,3.84009 -7.01953,3.84009 -2.99226,0 -5.62999,-1.58982 -7.10211,-3.96396 l 0,-8.25827 c 1.52118,1.23861 3.95279,2.06456 6.6892,2.06456 3.23944,0 6.05058,-1.12469 7.43244,-2.76652 z"
       id="path4217"
       inkscape:connector-curvature="0"
       sodipodi:nodetypes="cccsscccsccsscccssccccccsssssssssccsccsc" />
    <g
       id="g4510">
      <path
         sodipodi:nodetypes="scssccccccccscsccccscscscccccccsscsccsccccscs"
         inkscape:connector-curvature="0"
         id="path4264"
         d="m 582.74398,577.40534 c -0.38914,0.0287 -0.79137,0.0892 -1.21875,0.1875 -1.90442,0.43766 -3.67803,1.48215 -5.6875,3.21875 -2.00947,1.7366 -4.05464,4.20831 -5.5,7.40625 -0.42161,0.93283 -0.35739,1.21384 -0.40625,1.6875 -0.0489,0.47366 -0.0756,0.97384 -0.0937,1.53125 -0.0363,1.11483 -0.0448,2.45369 -0.0312,3.8125 0.0271,2.71763 0.0933,5.66857 0.0625,6.625 l 6.1875,0.21875 c 0.049,-1.52246 -0.0362,-4.26525 -0.0625,-6.90625 -0.0132,-1.3205 5.6e-4,-2.58778 0.0312,-3.53125 0.0154,-0.47173 0.0385,-0.89239 0.0625,-1.125 1.01575,-2.1435 2.45412,-3.82608 3.8125,-5 1.40901,-1.21767 2.91712,-1.8872 3,-1.90625 -0.15343,0.0353 0.87049,3e-4 1.78125,0.1875 0.91076,0.1872 1.93249,0.57226 2.03125,0.625 0.88269,0.47133 1.35494,0.53777 2,0.6875 1.96966,0.12348 4.18549,0.37004 6.3125,0 0.64506,-0.14973 1.14856,-0.21617 2.03125,-0.6875 0.0988,-0.0527 1.08924,-0.4378 2,-0.625 0.91076,-0.1872 1.93468,-0.15224 1.78125,-0.1875 0.0829,0.019 1.62224,0.68858 3.03125,1.90625 1.37238,1.18602 2.79491,2.88727 3.8125,5.0625 0.0227,0.23638 0.048,0.61689 0.0625,1.0625 0.0307,0.94347 0.0132,2.21075 0,3.53125 -0.0263,2.641 -0.11151,5.38379 -0.0625,6.90625 l 6.1875,-0.21875 c -0.0308,-0.95643 0.0666,-3.90737 0.0937,-6.625 0.0136,-1.35881 0.005,-2.69767 -0.0312,-3.8125 -0.0182,-0.55741 -0.0449,-1.05759 -0.0937,-1.53125 -0.0489,-0.47366 0.0154,-0.75467 -0.40625,-1.6875 -1.44536,-3.19794 -3.49053,-5.66965 -5.5,-7.40625 -2.00947,-1.7366 -3.78308,-2.78109 -5.6875,-3.21875 -0.85477,-0.19644 -1.62416,-0.23833 -2.34375,-0.1875 -0.71959,0.0508 -1.40788,0.20278 -2.09375,0.34375 -1.34144,0.27572 -2.5109,0.57422 -3.625,1.15625 -0.11752,0.0365 -0.3369,0.1039 -0.5625,0.15625 -0.45125,0.10474 -1.02196,0.2459 -1.59375,0.34375 -0.0823,0.0141 -0.0753,0.018 -0.15625,0.0312 -0.0655,-0.0108 -0.0587,-0.0199 -0.125,-0.0312 -0.57179,-0.0978 -1.17375,-0.23901 -1.625,-0.34375 -0.33844,-0.0786 -0.65396,-0.21509 -0.625,-0.1875 -1.09063,-0.55444 -2.25516,-0.85629 -3.5625,-1.125 -0.68587,-0.14097 -1.34291,-0.29292 -2.0625,-0.34375 -0.3598,-0.0254 -0.73586,-0.0287 -1.125,0 z"
         style="font-size:medium;font-style:normal;font-variant:normal;font-weight:normal;font-stretch:normal;text-indent:0;text-align:start;text-decoration:none;line-height:normal;letter-spacing:normal;word-spacing:normal;text-transform:none;direction:ltr;block-progression:tb;writing-mode:lr-tb;text-anchor:start;baseline-shift:baseline;color:#000000;fill:#000000;fill-opacity:1;stroke:none;stroke-width:6.19999981;marker:none;visibility:visible;display:inline;overflow:visible;enable-background:accumulate;font-family:Sans;-inkscape-font-specification:Sans" />
      <path
         sodipodi:nodetypes="sccscccscscssssss"
         inkscape:connector-curvature="0"
         id="path4280"
         d="m 603.7187,560.6875 c 0,-2.87517 -0.76126,-8.52938 -4.46875,-8.46875 l -15.4375,0.25 c -0.5893,-0.1529 -1.20662,-0.25 -1.84375,-0.25 -0.63199,0 -1.22749,0.0995 -1.8125,0.25 l -0.1875,0 c -0.009,0.0211 -0.0228,0.0413 -0.0312,0.0625 -3.04543,0.88762 -5.28125,3.66797 -5.28125,7 0,3.07782 1.90382,5.69763 4.59375,6.78125 1.8606,6.65199 6.76922,11.40625 12.5625,11.40625 6.62232,0 10.92366,-6.00586 11.40233,-11.2678 0.47867,-5.26195 0.50387,-5.51197 0.50387,-5.76345 z m -21.49995,-5.125 c 2.20914,0 4,1.79086 4,4 0,2.20914 -1.79086,4 -4,4 -2.20914,0 -4,-1.79086 -4,-4 0,-2.20914 1.79086,-4 4,-4 z"
         style="fill:#000000;fill-opacity:1;stroke:none" />
      <rect
         ry="0.59753197"
         rx="0.59753197"
         y="560.24567"
         x="593.06464"
         height="2.6407433"
         width="8.7521772"
         id="rect4303"
         style="fill:#ffffff;fill-opacity:1;stroke:none" />
    </g>
    <rect
       style="fill:#000000;fill-opacity:1;stroke:none"
       id="rect4316"
       width="15.323785"
       height="15.323785"
       x="649.28503"
       y="535.65454" />
    <rect
       y="554.12421"
       x="626.76965"
       height="15.323785"
       width="15.323785"
       id="rect4318"
       style="fill:#000000;fill-opacity:1;stroke:none" />
    <rect
       style="fill:#000000;fill-opacity:1;stroke:none"
       id="rect4320"
       width="15.323785"
       height="15.323785"
       x="671.62457"
       y="553.9483" />
    <path
       sodipodi:type="arc"
       style="fill:#000000;fill-opacity:1;stroke:none"
       id="path4322"
       sodipodi:cx="589.23462"
       sodipodi:cy="394.75287"
       sodipodi:rx="5.2401667"
       sodipodi:ry="6.1871843"
       d="m 594.47479,394.75287 a 5.2401667,6.1871843 0 1 1 -10.48034,0 5.2401667,6.1871843 0 1 1 10.48034,0 z"
       transform="matrix(1.3930714,0,0,1.2935663,-164.2609,53.566645)" />
    <path
       style="fill:#000000;fill-opacity:1;stroke:none"
       d="m 650.51526,573.88825 c -4.19033,0 -7.57482,3.38449 -7.57482,7.57482 l 0,18.63233 27.81789,0 0,-18.63233 c 0,-4.19033 -3.38449,-7.57482 -7.57483,-7.57482 l -12.66824,0 z"
       id="rect4324"
       inkscape:connector-curvature="0" />
    <rect
       y="455.65454"
       x="649.28503"
       height="15.323785"
       width="15.323785"
       id="rect4329"
       style="fill:#000000;fill-opacity:1;stroke:none" />
    <rect
       style="fill:#000000;fill-opacity:1;stroke:none"
       id="rect4331"
       width="15.323785"
       height="15.323785"
       x="626.76965"
       y="474.12421" />
    <rect
       y="473.9483"
       x="671.62457"
       height="15.323785"
       width="15.323785"
       id="rect4333"
       style="fill:#000000;fill-opacity:1;stroke:none" />
    <path
       style="fill:#000000;fill-opacity:1;stroke:none"
       d="m 44.834821,482.01339 c -3.56455,0 -6.4375,2.87295 -6.4375,6.4375 l 0,36.78125 33.125,0 -20.65625,-43.21875 -6.03125,0 z m 14.90625,0 20.625,43.21875 24.281249,0 0,-36.78125 c 0,-3.56455 -2.87295,-6.4375 -6.437499,-6.4375 l -38.46875,0 z"
       id="rect4350"
       inkscape:connector-curvature="0" />
    <path
       style="fill:#000000;fill-opacity:1;stroke:none"
       d="m 46.705361,440.99107 c 3.97432,4.35659 7.59532,9.77604 11.69196,13.86607 l 0,1.78125 -1.60268,0 0,3.21875 1.60268,0 c 0.0228,2.6705 -0.21049,5.59951 0.16964,8.125 0,5.67078 5.608,10.28125 12.95536,10.28125 7.34736,0 13.3125,-4.61047 13.3125,-10.28125 -0.4686,-2.57545 0.0804,-5.46104 -0.1875,-8.125 l 1.87946,0 0,-3.21875 -1.87946,0 0,-2.125 c 3.84093,-4.04159 7.52231,-9.09454 11.20536,-13.43304 z m 20.22321,4.24107 11.46875,0 0,9.84375 -11.37946,-0.13393 z m -4.07589,14.65625 18.2921,0.088 c 0.12698,3.09866 0.3431,5.39964 0.0925,8.25451 0,3.1066 -3.95184,5.75127 -9.27744,5.75127 -5.14023,0 -8.81646,-2.53438 -9.10268,-5.49107 -0.2085,-3.29282 -0.85242,-6.03142 -0.004,-8.60268 z"
       id="path4365"
       inkscape:connector-curvature="0"
       sodipodi:nodetypes="cccccccsccccccccccccccccsccc" />
    <g
       id="g3828"
       transform="translate(-187.88837,160.61426)">
      <path
         inkscape:connector-curvature="0"
         id="path3047"
         d="m 385.40626,299.375 0,9 -3.8125,0.0625 2.46875,4.09375 2.4375,4.09375 2.34375,-4.15625 2.3125,-4.1875 -3.78125,0.0625 0,-8.96875 -1.96875,0 z"
         style="fill:#000000;fill-opacity:1;stroke:none" />
      <path
         inkscape:connector-curvature="0"
         style="fill:#000000;fill-opacity:1;stroke:none"
         d="m 351.75,335.14732 9,0 0.0625,3.8125 4.09375,-2.46875 4.09375,-2.4375 -4.15625,-2.34375 -4.1875,-2.3125 0.0625,3.78125 -8.96875,0 0,1.96875 z"
         id="path3821" />
      <path
         id="path3823"
         d="m 421,333.20982 -9,0 -0.0625,-3.8125 -4.09375,2.46875 -4.09375,2.4375 4.15625,2.34375 4.1875,2.3125 -0.0625,-3.78125 8.96875,0 0,-1.96875 z"
         style="fill:#000000;fill-opacity:1;stroke:none"
         inkscape:connector-curvature="0" />
      <path
         inkscape:connector-curvature="0"
         style="fill:#000000;fill-opacity:1;stroke:none"
         d="m 387.34376,369.91072 0,-9 3.8125,-0.0625 -2.46875,-4.09375 -2.4375,-4.09375 -2.34375,4.15625 -2.3125,4.1875 3.78125,-0.0625 0,8.96875 1.96875,0 z"
         id="path3826" />
    </g>
    <g
       id="g3874"
       transform="matrix(1.1998434,0,0,1.1998434,-117.75178,-95.787929)">
      <path
         sodipodi:nodetypes="csccccccccccccssscccccccsscccccccccccccccc"
         inkscape:connector-curvature="0"
         id="path3847"
         d="m 541.04467,461.20849 c -1.58702,0.25253 -2.49751,1.33918 -2.49751,4.40758 0,0.17017 -0.89441,0.23903 -0.8842,0.4053 l -7.99778,0.0947 -8.34375,8.34375 -5.9375,0.125 -0.25,17.0625 4.34216,0 c -0.0191,-1.07846 0.10634,-2.12539 0.47034,-3.125 0.85257,-2.50975 3.31727,-4.36932 5.96875,-4.46875 2.57755,-0.1666 5.13067,1.34677 6.28125,3.65625 0.48215,0.93823 0.75161,1.97662 0.75,3.03125 0.004,0.29823 0.008,0.6441 -0.0309,0.93782 l 18.90561,-0.0631 c -0.008,-0.13212 3.7e-4,-0.24056 3.7e-4,-0.37468 0,-3.6263 2.9362,-6.5625 6.5625,-6.5625 3.6263,0 6.5625,2.9362 6.5625,6.5625 0,0.13412 -0.0233,0.27413 -0.0312,0.40625 l 7.40625,0 0,-12.65625 -2.375,-2.125 -13.65625,-1.28125 -7.5625,-9.46875 -2.61802,-0.0316 c 0.0102,-0.16627 -1.35771,-0.39296 -1.35771,-0.56313 0,-3.0684 -1.29127,-4.11156 -2.63585,-4.2236 z m -9.94643,7.75704 5.38325,-0.22134 0,6.93433 -11.62881,-0.0937 z m 8.33994,-0.28474 8.4145,0.0625 5.65625,7.09153 -14.10232,-0.0303 z m -0.053,9.81028 10.46748,0 0,10.74239 -10.46748,0 z"
         style="fill:#000000;fill-opacity:1;stroke:none" />
      <path
         transform="matrix(0.91666671,0,0,0.91666671,110.0211,178.71693)"
         d="m 460.12448,341.34106 c 0,3.34736 -2.71356,6.06092 -6.06091,6.06092 -3.34735,0 -6.06092,-2.71356 -6.06092,-6.06092 0,-3.34735 2.71357,-6.06091 6.06092,-6.06091 3.34735,0 6.06091,2.71356 6.06091,6.06091 z"
         sodipodi:ry="6.0609155"
         sodipodi:rx="6.0609155"
         sodipodi:cy="341.34106"
         sodipodi:cx="454.06357"
         id="path3855"
         style="fill:#000000;fill-opacity:1;stroke:none"
         sodipodi:type="arc" />
      <path
         sodipodi:type="arc"
         style="fill:#000000;fill-opacity:1;stroke:none"
         id="path3866"
         sodipodi:cx="454.06357"
         sodipodi:cy="341.34106"
         sodipodi:rx="6.0609155"
         sodipodi:ry="6.0609155"
         d="m 460.12448,341.34106 c 0,3.34736 -2.71356,6.06092 -6.06091,6.06092 -3.34735,0 -6.06092,-2.71356 -6.06092,-6.06092 0,-3.34735 2.71357,-6.06091 6.06092,-6.06091 3.34735,0 6.06091,2.71356 6.06091,6.06091 z"
         transform="matrix(0.91666671,0,0,0.91666671,142.27364,178.96947)" />
    </g>
    <g
       id="g3947">
      <path
         transform="matrix(1.4218281,0,0,1.4218281,-636.25696,26.24468)"
         d="m 669.8574,304.53363 a 4.7350903,4.7350903 0 1 1 -9.47018,0 4.7350903,4.7350903 0 1 1 9.47018,0 z"
         sodipodi:ry="4.7350903"
         sodipodi:rx="4.7350903"
         sodipodi:cy="304.53363"
         sodipodi:cx="665.12231"
         id="path3927"
         style="fill:#000000;fill-opacity:1;stroke:none"
         sodipodi:type="arc" />
      <path
         sodipodi:nodetypes="csssssccsscsccsssssscccccccsccssccccccscccssscccccccccsccccccc"
         inkscape:connector-curvature="0"
         id="path3929"
         d="m 298.21402,464.01084 c 0,0 -0.7907,-0.41765 -3.50379,-0.15233 -1.35656,0.13265 -2.80012,0.29948 -4.08776,0.53318 -1.28763,0.23371 -2.24155,0.26798 -3.7323,1.28854 -1.12648,0.77117 -1.85954,1.62293 -2.75479,2.66592 -0.89525,1.043 -1.81218,2.20359 -2.66593,3.33241 -1.7075,2.25764 -3.11025,4.30992 -3.11025,4.30992 l 5.243,3.64343 c 0,0 1.36708,-1.95922 2.97695,-4.08775 0.80494,-1.06427 1.68808,-2.14099 2.44376,-3.02139 0.6787,-0.79069 1.23227,-1.31125 1.33297,-1.42183 0.15782,-0.0242 0.75559,-0.27896 1.42183,-0.39988 0.996,-0.18078 2.30068,-0.32172 3.55457,-0.44433 0.97506,-0.0954 1.07193,-0.0785 1.86615,-0.13322 l -0.59666,2.64053 c -0.23109,1.0227 -1.03158,2.71705 -3.09121,5.40168 -1.26705,1.65154 -2.57859,3.39024 -3.64343,5.02083 -1.06485,1.6306 -1.91849,2.81746 -2.31048,4.75424 -0.25887,1.27911 -0.28359,2.57348 -0.31102,4.26549 -0.0274,1.692 -0.0357,3.61923 0,5.46515 0.038,1.96299 0.0874,2.42049 0.13322,3.7323 l -10.75257,0.13322 0.0889,6.39823 13.99612,-0.17773 3.28798,-0.0444 -0.13322,-3.28798 c 0,0 -0.15264,-3.24087 -0.22216,-6.84255 -0.0348,-1.80084 -0.0253,-3.72258 0,-5.28742 0.004,-0.29982 0.0334,-0.52063 0.0444,-0.79978 l 1.51069,0.93308 c 0,0 2.67375,1.68636 5.42072,3.599 1.37348,0.95632 2.75257,1.97206 3.77673,2.79922 0.51209,0.41358 0.95369,0.778 1.19967,1.02194 0.0163,0.0749 -0.01,-0.0509 0,0.0444 0.0404,0.3812 0.0655,0.98623 0.0889,1.64399 0.0468,1.31552 0.0661,2.98455 0.0444,4.62094 -0.0431,3.27281 -0.17773,6.3538 -0.17773,6.3538 l 6.53153,0.26659 c 0,0 0.13308,-3.1389 0.17773,-6.53152 0.0223,-1.69631 0.009,-3.4728 -0.0444,-4.9764 -0.0267,-0.75181 -0.067,-1.41641 -0.13322,-2.04388 -0.0665,-0.62747 -0.0552,-1.06569 -0.44432,-1.99944 -0.47624,-1.14266 -0.92175,-1.50347 -1.42183,-1.99945 -0.50009,-0.49598 -1.06949,-0.96637 -1.68842,-1.46626 -1.23787,-0.99977 -2.73133,-2.0595 -4.17662,-3.06582 -1.56858,-1.09215 -1.99299,-1.34313 -3.06582,-2.04388 l 3.8656,-6.84254 c 0.0381,0.20434 0.0678,0.39107 0.13322,0.62205 0.13109,0.46196 0.0685,1.04564 1.28853,2.04387 1.45864,1.19343 1.83891,0.85283 2.44377,0.93308 0.60486,0.0802 1.22604,0.11261 1.91058,0.13322 1.36908,0.0418 2.96311,0.0518 4.53208,0 3.13796,-0.10336 6.13163,-0.31102 6.13163,-0.31102 l 0.0943,-5.99292 c 0,0 -3.41488,-0.37047 -6.40364,-0.27201 -1.39799,0.0461 -2.77655,0.0695 -3.8656,0.0444 -0.0114,-0.19782 -0.0373,-0.32949 -0.0444,-0.53318 -0.0496,-1.39089 0,-2.7548 0,-2.7548 l 0.0444,-3.02138 c -0.16241,-5.52803 -2.75014,-4.58403 -5.85234,-6.12529 -1.16262,-1.08756 -5.11024,-2.04698 -7.35034,-2.56437 z"
         style="font-size:medium;font-style:normal;font-variant:normal;font-weight:normal;font-stretch:normal;text-indent:0;text-align:start;text-decoration:none;line-height:normal;letter-spacing:normal;word-spacing:normal;text-transform:none;direction:ltr;block-progression:tb;writing-mode:lr-tb;text-anchor:start;baseline-shift:baseline;color:#000000;fill:#000000;fill-opacity:1;stroke:none;stroke-width:4.5;marker:none;visibility:visible;display:inline;overflow:visible;enable-background:accumulate;font-family:Sans;-inkscape-font-specification:Sans" />
      <rect
         y="454.84058"
         x="326.0394"
         height="56.552868"
         width="25.493673"
         id="rect3945"
         style="fill:#000000;fill-opacity:1;stroke:none" />
    </g>
    <g
       id="g3963">
      <path
         sodipodi:type="arc"
         style="fill:#000000;fill-opacity:1;stroke:none"
         id="path3954"
         sodipodi:cx="665.12231"
         sodipodi:cy="304.53363"
         sodipodi:rx="4.7350903"
         sodipodi:ry="4.7350903"
         d="m 669.8574,304.53363 a 4.7350903,4.7350903 0 1 1 -9.47018,0 4.7350903,4.7350903 0 1 1 9.47018,0 z"
         transform="matrix(-1.4218281,0,0,1.4218281,1334.5693,26.24468)" />
      <path
         style="font-size:medium;font-style:normal;font-variant:normal;font-weight:normal;font-stretch:normal;text-indent:0;text-align:start;text-decoration:none;line-height:normal;letter-spacing:normal;word-spacing:normal;text-transform:none;direction:ltr;block-progression:tb;writing-mode:lr-tb;text-anchor:start;baseline-shift:baseline;color:#000000;fill:#000000;fill-opacity:1;stroke:none;stroke-width:4.5;marker:none;visibility:visible;display:inline;overflow:visible;enable-background:accumulate;font-family:Sans;-inkscape-font-specification:Sans"
         d="m 400.09828,464.01084 c 0,0 0.7907,-0.41765 3.50379,-0.15233 1.35656,0.13265 2.80012,0.29948 4.08776,0.53318 1.28763,0.23371 2.24155,0.26798 3.7323,1.28854 1.12648,0.77117 1.85954,1.62293 2.75479,2.66592 0.89525,1.043 1.81218,2.20359 2.66593,3.33241 1.7075,2.25764 3.11025,4.30992 3.11025,4.30992 l -5.243,3.64343 c 0,0 -1.36708,-1.95922 -2.97695,-4.08775 -0.80494,-1.06427 -1.68808,-2.14099 -2.44376,-3.02139 -0.6787,-0.79069 -1.23227,-1.31125 -1.33297,-1.42183 -0.15782,-0.0242 -0.75559,-0.27896 -1.42183,-0.39988 -0.996,-0.18078 -2.30068,-0.32172 -3.55457,-0.44433 -0.97506,-0.0954 -1.07193,-0.0785 -1.86615,-0.13322 l 0.59666,2.64053 c 0.23109,1.0227 1.03158,2.71705 3.09121,5.40168 1.26705,1.65154 2.57859,3.39024 3.64343,5.02083 1.06485,1.6306 1.91849,2.81746 2.31048,4.75424 0.25887,1.27911 0.28359,2.57348 0.31102,4.26549 0.0274,1.692 0.0357,3.61923 0,5.46515 -0.038,1.96299 -0.0874,2.42049 -0.13322,3.7323 l 10.75257,0.13322 -0.0889,6.39823 -13.99612,-0.17773 -3.28798,-0.0444 0.13322,-3.28798 c 0,0 0.15264,-3.24087 0.22216,-6.84255 0.0348,-1.80084 0.0253,-3.72258 0,-5.28742 -0.004,-0.29982 -0.0334,-0.52063 -0.0444,-0.79978 l -1.51069,0.93308 c 0,0 -2.67375,1.68636 -5.42072,3.599 -1.37348,0.95632 -2.75257,1.97206 -3.77673,2.79922 -0.51209,0.41358 -0.95369,0.778 -1.19967,1.02194 -0.0163,0.0749 0.01,-0.0509 0,0.0444 -0.0404,0.3812 -0.0655,0.98623 -0.0889,1.64399 -0.0468,1.31552 -0.0661,2.98455 -0.0444,4.62094 0.0431,3.27281 0.17773,6.3538 0.17773,6.3538 l -6.53153,0.26659 c 0,0 -0.13308,-3.1389 -0.17773,-6.53152 -0.0223,-1.69631 -0.009,-3.4728 0.0444,-4.9764 0.0267,-0.75181 0.067,-1.41641 0.13322,-2.04388 0.0665,-0.62747 0.0552,-1.06569 0.44432,-1.99944 0.47624,-1.14266 0.92175,-1.50347 1.42183,-1.99945 0.50009,-0.49598 1.06949,-0.96637 1.68842,-1.46626 1.23787,-0.99977 2.73133,-2.0595 4.17662,-3.06582 1.56858,-1.09215 1.99299,-1.34313 3.06582,-2.04388 l -3.8656,-6.84254 c -0.0381,0.20434 -0.0678,0.39107 -0.13322,0.62205 -0.13109,0.46196 -0.0685,1.04564 -1.28853,2.04387 -1.45864,1.19343 -1.83891,0.85283 -2.44377,0.93308 -0.60486,0.0802 -1.22604,0.11261 -1.91058,0.13322 -1.36908,0.0418 -2.96311,0.0518 -4.53208,0 -3.13796,-0.10336 -6.13163,-0.31102 -6.13163,-0.31102 l -0.0943,-5.99292 c 0,0 3.41488,-0.37047 6.40364,-0.27201 1.39799,0.0461 2.77655,0.0695 3.8656,0.0444 0.0114,-0.19782 0.0373,-0.32949 0.0444,-0.53318 0.0496,-1.39089 0,-2.7548 0,-2.7548 l -0.0444,-3.02138 c 0.16241,-5.52803 2.75014,-4.58403 5.85234,-6.12529 1.16262,-1.08756 5.11024,-2.04698 7.35034,-2.56437 z"
         id="path3956"
         inkscape:connector-curvature="0"
         sodipodi:nodetypes="csssssccsscsccsssssscccccccsccssccccccscccssscccccccccsccccccc" />
      <rect
         style="fill:#000000;fill-opacity:1;stroke:none"
         id="rect3958"
         width="25.493673"
         height="56.552868"
         x="426.0394"
         y="454.84058" />
    </g>
    <g
       id="g3987"
       transform="translate(-4.0406102,-21.213204)">
      <path
         sodipodi:type="arc"
         style="fill:#000000;fill-opacity:1;stroke:none"
         id="path3978"
         sodipodi:cx="665.12231"
         sodipodi:cy="304.53363"
         sodipodi:rx="4.7350903"
         sodipodi:ry="4.7350903"
         d="m 669.8574,304.53363 c 0,2.61512 -2.11997,4.73509 -4.73509,4.73509 -2.61511,0 -4.73509,-2.11997 -4.73509,-4.73509 0,-2.61512 2.11998,-4.73509 4.73509,-4.73509 2.61512,0 4.73509,2.11997 4.73509,4.73509 z"
         transform="matrix(1.4218281,0,0,1.4218281,-636.25696,-53.75532)" />
      <path
         style="font-size:medium;font-style:normal;font-variant:normal;font-weight:normal;font-stretch:normal;text-indent:0;text-align:start;text-decoration:none;line-height:normal;letter-spacing:normal;word-spacing:normal;text-transform:none;direction:ltr;block-progression:tb;writing-mode:lr-tb;text-anchor:start;baseline-shift:baseline;color:#000000;fill:#000000;fill-opacity:1;stroke:none;stroke-width:4.5;marker:none;visibility:visible;display:inline;overflow:visible;enable-background:accumulate;font-family:Sans;-inkscape-font-specification:Sans"
         d="m 298.21402,384.01084 c 0,0 -0.7907,-0.41765 -3.50379,-0.15233 -1.35656,0.13265 -2.80012,0.29948 -4.08776,0.53318 -1.28763,0.23371 -2.24155,0.26798 -3.7323,1.28854 -1.12648,0.77117 -1.85954,1.62293 -2.75479,2.66592 -0.89525,1.043 -1.81218,2.20359 -2.66593,3.33241 -1.7075,2.25764 -3.11025,4.30992 -3.11025,4.30992 l 5.243,3.64343 c 0,0 1.36708,-1.95922 2.97695,-4.08775 0.80494,-1.06427 1.68808,-2.14099 2.44376,-3.02139 0.6787,-0.79069 1.23227,-1.31125 1.33297,-1.42183 0.15782,-0.0242 0.75559,-0.27896 1.42183,-0.39988 0.996,-0.18078 2.30068,-0.32172 3.55457,-0.44433 0.97506,-0.0954 1.07193,-0.0785 1.86615,-0.13322 l -0.59666,2.64053 c -0.23109,1.0227 -1.03158,2.71705 -3.09121,5.40168 -1.26705,1.65154 -2.57859,3.39024 -3.64343,5.02083 -1.06485,1.6306 -1.91849,2.81746 -2.31048,4.75424 -0.25887,1.27911 -0.28359,2.57348 -0.31102,4.26549 -0.0274,1.692 -0.0357,3.61923 0,5.46515 0.038,1.96299 0.0874,2.42049 0.13322,3.7323 l -10.75257,0.13322 0.0889,6.39823 13.99612,-0.17773 3.28798,-0.0444 -0.13322,-3.28798 c 0,0 -0.15264,-3.24087 -0.22216,-6.84255 -0.0348,-1.80084 -0.0253,-3.72258 0,-5.28742 0.004,-0.29982 0.0334,-0.52063 0.0444,-0.79978 l 1.51069,0.93308 c 0,0 2.67375,1.68636 5.42072,3.599 1.37348,0.95632 2.75257,1.97206 3.77673,2.79922 0.51209,0.41358 0.95369,0.778 1.19967,1.02194 0.0163,0.0749 -0.01,-0.0509 0,0.0444 0.0404,0.3812 0.0655,0.98623 0.0889,1.64399 0.0468,1.31552 0.0661,2.98455 0.0444,4.62094 -0.0431,3.27281 -0.17773,6.3538 -0.17773,6.3538 l 6.53153,0.26659 c 0,0 0.13308,-3.1389 0.17773,-6.53152 0.0223,-1.69631 0.009,-3.4728 -0.0444,-4.9764 -0.0267,-0.75181 -0.067,-1.41641 -0.13322,-2.04388 -0.0665,-0.62747 -0.0552,-1.06569 -0.44432,-1.99944 -0.47624,-1.14266 -0.92175,-1.50347 -1.42183,-1.99945 -0.50009,-0.49598 -1.06949,-0.96637 -1.68842,-1.46626 -1.23787,-0.99977 -2.73133,-2.0595 -4.17662,-3.06582 -1.56858,-1.09215 -1.99299,-1.34313 -3.06582,-2.04388 l 3.8656,-6.84254 c 0.0381,0.20434 0.0678,0.39107 0.13322,0.62205 0.13109,0.46196 0.0685,1.04564 1.28853,2.04387 1.45864,1.19343 1.83891,0.85283 2.44377,0.93308 0.60486,0.0802 1.22604,0.11261 1.91058,0.13322 1.36908,0.0418 2.96311,0.0518 4.53208,0 3.13796,-0.10336 6.13163,-0.31102 6.13163,-0.31102 l 0.0943,-5.99292 c 0,0 -3.41488,-0.37047 -6.40364,-0.27201 -1.39799,0.0461 -2.77655,0.0695 -3.8656,0.0444 -0.0114,-0.19782 -0.0373,-0.32949 -0.0444,-0.53318 -0.0496,-1.39089 0,-2.7548 0,-2.7548 l 0.0444,-3.02138 c -0.16241,-5.52803 -2.75014,-4.58403 -5.85234,-6.12529 -1.16262,-1.08756 -5.11024,-2.04698 -7.35034,-2.56437 z"
         id="path3980"
         inkscape:connector-curvature="0"
         sodipodi:nodetypes="csssssccsscsccsssssscccccccsccssccccccscccssscccccccccsccccccc" />
    </g>
    <path
       inkscape:connector-curvature="0"
       id="path3994"
       d="m 197.13908,339.98926 0,9 -3.43369,0.0625 2.46875,4.09375 2.4375,4.09375 2.34375,-4.15625 2.3125,-4.1875 -3.40244,0.0625 0,-8.96875 z"
       style="fill:#000000;fill-opacity:1;stroke:none"
       sodipodi:nodetypes="cccccccccc" />
    <path
       inkscape:connector-curvature="0"
       style="fill:#000000;fill-opacity:1;stroke:none"
       d="m 163.86163,376.14039 9,0 0.0625,3.43369 4.09375,-2.46875 4.09375,-2.4375 -4.15625,-2.34375 -4.1875,-2.3125 0.0625,3.27617 -8.96875,0 z"
       id="path3996"
       sodipodi:nodetypes="cccccccccc" />
    <path
       id="path3998"
       d="m 233.11163,373.44527 -9,0 -0.0625,-3.43369 -4.09375,2.46875 -4.09375,2.4375 4.15625,2.34375 4.1875,2.3125 -0.0625,-3.40244 8.96875,0 z"
       style="fill:#000000;fill-opacity:1;stroke:none"
       inkscape:connector-curvature="0"
       sodipodi:nodetypes="cccccccccc" />
    <path
       inkscape:connector-curvature="0"
       style="fill:#000000;fill-opacity:1;stroke:none"
       d="m 199.8342,410.52498 0,-9 3.43369,-0.0625 -2.46875,-4.09375 -2.4375,-4.09375 -2.34375,4.15625 -2.3125,4.1875 3.40244,-0.0625 0,8.96875 z"
       id="path4000"
       sodipodi:nodetypes="cccccccccc" />
    <path
       sodipodi:type="arc"
       style="fill:none;fill-opacity:1;stroke:#000000;stroke-opacity:1;stroke-width:5.288062;stroke-miterlimit:4;stroke-dasharray:none"
       id="path4002"
       sodipodi:cx="199.00005"
       sodipodi:cy="376.57013"
       sodipodi:rx="15.152288"
       sodipodi:ry="13.131983"
       d="m 214.15233,376.57013 a 15.152288,13.131983 0 1 1 -30.30457,0 15.152288,13.131983 0 1 1 30.30457,0 z"
       transform="matrix(0.8249579,0,0,0.95187453,34.31997,16.809605)" />
    <path
       style="fill:#000000;fill-opacity:1;stroke:none"
       d="m 347.53266,357.57412 0,9.65625 c 0,-3.76127 6.69,-6.8125 15,-6.8125 l 99.46875,0 c 8.31,0 15,3.05123 15,6.8125 l 0,-9.65625 -129.46875,0 z m 22.78125,4.46875 c -2.40638,0 -4.375,1.93737 -4.375,4.34375 0,2.40638 1.96862,4.375 4.375,4.375 2.40638,0 4.34375,-1.96862 4.34375,-4.375 0,-2.40638 -1.93737,-4.34375 -4.34375,-4.34375 z m 29.4375,0.9375 c -5.0817,0 -9.1875,3.99512 -9.1875,8.96875 l 0,24.28125 c 0,4.97363 4.1058,8.96875 9.1875,8.96875 l 28.0625,0 c 5.0817,0 9.15625,-3.99512 9.15625,-8.96875 l 0,-24.28125 c 0,-4.97363 -4.07455,-8.96875 -9.15625,-8.96875 l -28.0625,0 z m 58.5625,1.0625 c -2.40638,0 -4.375,1.93737 -4.375,4.34375 0,2.40638 1.96862,4.375 4.375,4.375 2.40638,0 4.34375,-1.96862 4.34375,-4.375 0,-2.40638 -1.93737,-4.34375 -4.34375,-4.34375 z m -58.3125,2.84375 27.53125,0 c 2.85701,0 5.15625,2.14252 5.15625,4.8125 l 0,24.78125 c 0,2.66998 -2.29924,4.8125 -5.15625,4.8125 l -27.53125,0 c -2.85701,0 -5.15625,-2.14252 -5.15625,-4.8125 l 0,-24.78125 c 0,-2.66998 2.29924,-4.8125 5.15625,-4.8125 z m -41.6875,1.15625 c -2.40638,0 -4.375,1.93737 -4.375,4.34375 0,2.40638 1.96862,4.375 4.375,4.375 2.40638,0 4.34375,-1.96862 4.34375,-4.375 0,-2.40638 -1.93737,-4.34375 -4.34375,-4.34375 z m 24,0 c -2.40638,0 -4.375,1.93737 -4.375,4.34375 0,2.40638 1.96862,4.375 4.375,4.375 2.40638,0 4.34375,-1.96862 4.34375,-4.375 0,-2.40638 -1.93737,-4.34375 -4.34375,-4.34375 z m 64,2 c -2.40638,0 -4.375,1.93737 -4.375,4.34375 0,2.40638 1.96862,4.375 4.375,4.375 2.40638,0 4.34375,-1.96862 4.34375,-4.375 0,-2.40638 -1.93737,-4.34375 -4.34375,-4.34375 z m 24,2 c -2.40638,0 -4.375,1.93737 -4.375,4.34375 0,2.40638 1.96862,4.375 4.375,4.375 2.40638,0 4.34375,-1.96862 4.34375,-4.375 0,-2.40638 -1.93737,-4.34375 -4.34375,-4.34375 z m -98,4 c -2.40638,0 -4.375,1.93737 -4.375,4.34375 0,2.40638 1.96862,4.375 4.375,4.375 2.40638,0 4.34375,-1.96862 4.34375,-4.375 0,-2.40638 -1.93737,-4.34375 -4.34375,-4.34375 z m 86,2 c -2.40638,0 -4.375,1.93737 -4.375,4.34375 0,2.40638 1.96862,4.375 4.375,4.375 2.40638,0 4.34375,-1.96862 4.34375,-4.375 0,-2.40638 -1.93737,-4.34375 -4.34375,-4.34375 z m -100,6 c -2.40638,0 -4.375,1.93737 -4.375,4.34375 0,2.40638 1.96862,4.375 4.375,4.375 2.40638,0 4.34375,-1.96862 4.34375,-4.375 0,-2.40638 -1.93737,-4.34375 -4.34375,-4.34375 z m 24,2 c -2.40638,0 -4.375,1.93737 -4.375,4.34375 0,2.40638 1.96862,4.375 4.375,4.375 2.40638,0 4.34375,-1.96862 4.34375,-4.375 0,-2.40638 -1.93737,-4.34375 -4.34375,-4.34375 z m 64,0 c -2.40638,0 -4.375,1.93737 -4.375,4.34375 0,2.40638 1.96862,4.375 4.375,4.375 2.40638,0 4.34375,-1.96862 4.34375,-4.375 0,-2.40638 -1.93737,-4.34375 -4.34375,-4.34375 z m 24,4 c -2.40638,0 -4.375,1.93737 -4.375,4.34375 0,2.40638 1.96862,4.375 4.375,4.375 2.40638,0 4.34375,-1.96862 4.34375,-4.375 0,-2.40638 -1.93737,-4.34375 -4.34375,-4.34375 z m -98,4 c -2.40638,0 -4.375,1.93737 -4.375,4.34375 0,2.40638 1.96862,4.375 4.375,4.375 2.40638,0 4.34375,-1.96862 4.34375,-4.375 0,-2.40638 -1.93737,-4.34375 -4.34375,-4.34375 z m 88,2 c -2.40638,0 -4.375,1.93737 -4.375,4.34375 0,2.40638 1.96862,4.375 4.375,4.375 2.40638,0 4.34375,-1.96862 4.34375,-4.375 0,-2.40638 -1.93737,-4.34375 -4.34375,-4.34375 z m -112.78125,5.09375 0,9.84375 129.46875,0 0,-9.84375 c 0,3.76127 -6.69,6.78125 -15,6.78125 l -99.46875,0 c -8.31,0 -15,-3.01998 -15,-6.78125 z"
       id="rect4024"
       inkscape:connector-curvature="0" />
    <path
       style="fill:#000000;fill-opacity:1;stroke:none"
       d="m 508.11344,366.48195 0,21.1875 6.4375,0 0,19.46875 6.6875,0 0,-7.96875 19.3125,0 0,7.96875 6.6875,0 0,-19.46875 6.3125,0 0,-21.1875 -45.4375,0 z m 9.03125,6.6875 6.25,0 -1.5625,8.1875 -6.21875,0 1.53125,-8.1875 z m 11.3125,0 6.25,0 -1.5625,8.1875 -6.21875,0 1.53125,-8.1875 z m 11.34375,0 6.25,0 -1.5625,8.1875 -6.21875,0 1.53125,-8.1875 z m -18.5625,14.5 19.3125,0 0,7.21875 -19.3125,0 0,-7.21875 z"
       id="rect4091"
       inkscape:connector-curvature="0" />
    <path
       style="fill:#000000;fill-opacity:1;stroke:none"
       d="m 603.37396,360.90962 c -5.56555,0.0302 -13.0625,3.03125 -13.0625,3.03125 l 0,26.78125 c 0,0 6.74403,-1.80668 11.78125,-1.78125 5.03721,0.0254 14.78289,2.65128 19.84375,2.78125 5.06088,0.12998 10.9375,-2.28125 10.9375,-2.28125 l 0,-27.78125 c 0,0 -5.81858,2.21862 -10.90625,2.53125 -5.08767,0.31262 -13.02819,-3.31149 -18.59375,-3.28125 z m 2.375,6.96875 c 1.07291,2e-5 2.01079,0.15916 2.78125,0.46875 0.77044,0.30963 1.47534,0.7372 2.125,1.28125 l -1.875,2.1875 c -0.40806,-0.36285 -0.82065,-0.64732 -1.28125,-0.84375 -0.46062,-0.1964 -0.98719,-0.28124 -1.53125,-0.28125 -0.49843,10e-6 -0.95935,0.0772 -1.375,0.28125 -0.41566,0.20404 -0.7605,0.55439 -1.0625,1 -0.30201,0.44564 -0.55254,1.00005 -0.71875,1.6875 -0.16622,0.68747 -0.21875,1.51664 -0.21875,2.46875 0,0.93645 0.0601,1.7264 0.21875,2.40625 0.1586,0.67986 0.39287,1.24925 0.6875,1.6875 0.29462,0.43825 0.65467,0.76473 1.0625,0.96875 0.40781,0.20403 0.82883,0.28125 1.3125,0.28125 0.72526,0 1.34532,-0.11057 1.84375,-0.375 0.49841,-0.26442 0.96776,-0.58985 1.40625,-0.9375 l 1.6875,2.1875 c -0.54362,0.54407 -1.24008,1.02968 -2.09375,1.4375 -0.85369,0.40782 -1.85276,0.59375 -3.03125,0.59375 -1.04249,0 -2.01372,-0.17622 -2.875,-0.53125 -0.86129,-0.35503 -1.5993,-0.86743 -2.21875,-1.5625 -0.61945,-0.69507 -1.09769,-1.55887 -1.4375,-2.59375 -0.33981,-1.03487 -0.5,-2.218 -0.5,-3.5625 0,-1.31451 0.16862,-2.4801 0.53125,-3.5 0.36263,-1.01988 0.86556,-1.89129 1.5,-2.59375 0.63443,-0.70243 1.38871,-1.2311 2.25,-1.59375 0.86128,-0.36262 1.80044,-0.56248 2.8125,-0.5625 z m 6.65625,0.40625 4.9375,0 c 2.13015,2e-5 3.79024,0.4352 4.96875,1.28125 1.17849,0.84608 1.78124,2.12165 1.78125,3.84375 -10e-6,0.92169 -0.16653,1.73378 -0.46875,2.40625 -0.30225,0.67248 -0.70618,1.21063 -1.25,1.65625 -0.54385,0.44563 -1.19831,0.7886 -1.96875,1 -0.77046,0.21141 -1.64082,0.31251 -2.5625,0.3125 l -1.6875,0 0,5.21875 -3.75,0 0,-15.71875 z m 3.75,2.6875 0,5.09375 1.375,0 c 0.86128,10e-6 1.53915,-0.20196 2,-0.625 0.46083,-0.42303 0.68749,-1.10956 0.6875,-2.03125 -10e-6,-1.63173 -0.93917,-2.43749 -2.8125,-2.4375 l -1.25,0 z"
       id="path4143"
       inkscape:connector-curvature="0" />
    <path
       style="fill:#000000;fill-opacity:1;stroke:none"
       d="m 583.51301,364.47382 1.06605,45.02889 4.56876,0 0,-45.2833 z"
       id="path4145"
       inkscape:connector-curvature="0" />
    <path
       style="fill:none;stroke:#000000;stroke-width:5.19999981;stroke-linecap:butt;stroke-linejoin:miter;stroke-miterlimit:4;stroke-opacity:1;stroke-dasharray:none"
       d="m 663.65327,390.30665 30.625,-13.125 30.625,13.125"
       id="path4163"
       inkscape:connector-curvature="0"
       sodipodi:nodetypes="ccc" />
  </g>
</svg>
